<mxfile host="Electron" modified="2024-01-13T06:05:54.192Z" agent="Mozilla/5.0 (Windows NT 10.0; Win64; x64) AppleWebKit/537.36 (KHTML, like Gecko) draw.io/22.1.18 Chrome/120.0.6099.199 Electron/28.1.2 Safari/537.36" etag="V5khaz3RuesOywsn-8oK" version="22.1.18" type="device">
  <diagram name="Page-1" id="_FpkcCXUdYjWNpRJWoBO">
    <mxGraphModel dx="558" dy="383" grid="1" gridSize="10" guides="1" tooltips="1" connect="1" arrows="1" fold="1" page="1" pageScale="1" pageWidth="850" pageHeight="1100" math="0" shadow="0">
      <root>
        <mxCell id="0" />
        <mxCell id="1" parent="0" />
        <mxCell id="K0yxcCSWLpo3MVFxtC6q-3" value="" style="edgeStyle=orthogonalEdgeStyle;rounded=0;orthogonalLoop=1;jettySize=auto;html=1;shape=link;targetPerimeterSpacing=5;sourcePerimeterSpacing=5;" edge="1" parent="1" source="K0yxcCSWLpo3MVFxtC6q-1" target="K0yxcCSWLpo3MVFxtC6q-2">
          <mxGeometry relative="1" as="geometry">
            <Array as="points">
              <mxPoint x="370" y="365" />
              <mxPoint x="370" y="365" />
            </Array>
          </mxGeometry>
        </mxCell>
        <mxCell id="K0yxcCSWLpo3MVFxtC6q-1" value="&lt;font color=&quot;#ae4132&quot;&gt;arr1&lt;/font&gt; + &lt;font color=&quot;#b46504&quot;&gt;arr2&lt;/font&gt;" style="text;html=1;strokeColor=#10739e;fillColor=#b1ddf0;align=center;verticalAlign=middle;whiteSpace=wrap;rounded=0;fontFamily=consolas;" vertex="1" parent="1">
          <mxGeometry x="300" y="295" width="140" height="40" as="geometry" />
        </mxCell>
        <mxCell id="K0yxcCSWLpo3MVFxtC6q-2" value="&lt;font color=&quot;#ae4132&quot;&gt;arr1&lt;/font&gt;.operator(&lt;font color=&quot;#b46504&quot;&gt;arr2&lt;/font&gt;)" style="text;html=1;strokeColor=#10739e;fillColor=#b1ddf0;align=center;verticalAlign=middle;whiteSpace=wrap;rounded=0;fontFamily=consolas;" vertex="1" parent="1">
          <mxGeometry x="300" y="365" width="140" height="40" as="geometry" />
        </mxCell>
        <mxCell id="K0yxcCSWLpo3MVFxtC6q-5" value="&lt;div style=&quot;border-color: var(--border-color); font-family: Consolas, &amp;quot;Courier New&amp;quot;, monospace; font-size: 13px;&quot;&gt;&lt;font color=&quot;#10739e&quot;&gt;valarri&lt;/font&gt; valarri::operator+(&lt;font color=&quot;#b46504&quot;&gt;const valarri &amp;amp;a&lt;/font&gt;) {&lt;/div&gt;&lt;div style=&quot;border-color: var(--border-color); font-family: Consolas, &amp;quot;Courier New&amp;quot;, monospace; font-size: 13px;&quot;&gt;&amp;nbsp; &amp;nbsp; valarri &lt;font color=&quot;#10739e&quot;&gt;v&lt;/font&gt; {};&lt;/div&gt;&lt;div style=&quot;border-color: var(--border-color); font-family: Consolas, &amp;quot;Courier New&amp;quot;, monospace; font-size: 13px;&quot;&gt;&amp;nbsp; &amp;nbsp; &lt;font color=&quot;#10739e&quot;&gt;v._size&lt;/font&gt; = std::min(&lt;font color=&quot;#ae4132&quot;&gt;_size&lt;/font&gt;, &lt;font color=&quot;#b46504&quot;&gt;a._size&lt;/font&gt;);&lt;/div&gt;&lt;div style=&quot;border-color: var(--border-color); font-family: Consolas, &amp;quot;Courier New&amp;quot;, monospace; font-size: 13px;&quot;&gt;&amp;nbsp; &amp;nbsp; for (int i = 0; i &amp;lt; &lt;font color=&quot;#10739e&quot;&gt;v._size&lt;/font&gt;; i++)&lt;/div&gt;&lt;div style=&quot;border-color: var(--border-color); font-family: Consolas, &amp;quot;Courier New&amp;quot;, monospace; font-size: 13px;&quot;&gt;&amp;nbsp; &amp;nbsp; &amp;nbsp; &amp;nbsp; &lt;font color=&quot;#10739e&quot;&gt;v._arr[i]&lt;/font&gt; = &lt;font color=&quot;#ae4132&quot;&gt;_arr[i]&lt;/font&gt; + &lt;font color=&quot;#b46504&quot;&gt;a._arr[i]&lt;/font&gt;;&lt;/div&gt;&lt;div style=&quot;border-color: var(--border-color); font-family: Consolas, &amp;quot;Courier New&amp;quot;, monospace; font-size: 13px;&quot;&gt;&amp;nbsp; &amp;nbsp; &lt;font color=&quot;#10739e&quot;&gt;return v&lt;/font&gt;;&lt;/div&gt;&lt;div style=&quot;border-color: var(--border-color); font-family: Consolas, &amp;quot;Courier New&amp;quot;, monospace; font-size: 13px;&quot;&gt;}&lt;/div&gt;" style="text;html=1;strokeColor=#36393d;fillColor=#eeeeee;align=left;verticalAlign=middle;whiteSpace=wrap;rounded=0;gradientColor=none;" vertex="1" parent="1">
          <mxGeometry x="480" y="290" width="350" height="120" as="geometry" />
        </mxCell>
      </root>
    </mxGraphModel>
  </diagram>
</mxfile>
